<svg width="93" height="91" viewBox="0 0 93 91" fill="none" xmlns="http://www.w3.org/2000/svg">
<g clip-path="url(#clip0_501_81)">
<path d="M46.5 91C72.1812 91 93 70.629 93 45.5C93 20.371 72.1812 0 46.5 0C20.8188 0 0 20.371 0 45.5C0 70.629 20.8188 91 46.5 91Z" fill="url(#paint0_linear_501_81)"/>
<path d="M57.8386 39.9891C61.4827 32.6749 53.9192 22.062 49.6819 17.6699L43.1143 31.3841V48.4596C46.504 48.6837 54.1946 47.3033 57.8386 39.9891Z" fill="#F4F4F4" stroke="#F4F4F4" stroke-width="5.64516" stroke-linecap="round" stroke-linejoin="round"/>
<path fill-rule="evenodd" clip-rule="evenodd" d="M64.0053 18.5093C65.9542 20.3646 67.3499 22.658 68.1926 25.3895C69.0354 28.0695 69.325 30.8782 69.0617 33.8158C68.8509 36.7019 68.0873 39.5622 66.7705 42.3968C65.4537 45.1798 63.6103 47.6278 61.2402 49.7408C59.4494 51.2354 57.3426 52.5496 54.9198 53.6834C52.5496 54.7657 49.7845 55.4099 46.6243 55.6161C45.7289 55.6161 45.0442 55.5645 44.5702 55.4614C44.1488 55.3068 43.8591 55.2295 43.7011 55.2295C43.5431 55.2295 43.2008 55.3068 42.674 55.4614C42.2 55.5645 41.7523 55.6161 41.331 55.6161C41.0149 55.6161 40.7516 55.6676 40.5409 55.7707C40.4356 55.8222 40.3566 55.848 40.3039 55.848C39.9352 58.0125 39.5929 59.9452 39.2768 61.6459C39.0135 63.1405 38.7238 64.5578 38.4078 65.8977C38.3117 66.3864 38.2262 66.8135 38.1511 67.1788H55.8679C56.6471 67.1788 57.2787 67.7968 57.2787 68.5593C57.2787 69.3217 56.6471 69.9397 55.8679 69.9397H28.1597C27.3805 69.9397 26.7489 69.3217 26.7489 68.5593C26.7489 68.4189 26.7704 68.2833 26.8102 68.1556C26.6863 67.9139 26.5491 67.6251 26.399 67.2892C26.2937 67.083 26.32 66.0523 26.478 64.197C26.6361 62.2901 26.9521 59.9452 27.4261 57.1622C27.9001 54.3792 28.5059 51.3385 29.2432 48.0401C30.0333 44.6902 30.9813 41.4175 32.0874 38.2222C32.8247 36.3669 33.3778 34.6662 33.7465 33.1201C33.8218 32.7941 33.8969 32.4561 33.9722 32.1065V19.3596H25.2253C24.446 19.3596 23.8145 18.7416 23.8145 17.9792C23.8145 17.2167 24.446 16.5987 25.2253 16.5987H35.383C36.1622 16.5987 36.7938 17.2167 36.7938 17.9792V18.9494C36.8913 18.4463 36.9816 17.9646 37.0647 17.5043C37.17 17.3497 37.2227 17.1178 37.2227 16.8085C37.2754 16.4993 37.4597 16.3447 37.7757 16.3447C38.0391 16.0871 38.3025 15.9324 38.5658 15.8809C38.8818 15.7778 39.1715 15.6747 39.4348 15.5716C39.6982 15.5201 39.9352 15.4686 40.1459 15.417C40.8306 15.5201 41.3573 15.5459 41.726 15.4943C42.1473 15.3913 42.5423 15.2882 42.9111 15.1851C43.3324 15.0821 43.7801 15.0048 44.2541 14.9532C44.7282 14.9016 45.3602 14.9532 46.1503 15.1078C46.3083 14.9532 46.6506 14.9532 47.1773 15.1078C47.7041 15.2108 48.7574 15.1078 50.3375 14.7986H54.3668C56.4736 15.1078 58.2907 15.5459 59.8181 16.1128C61.3455 16.6282 62.7413 17.427 64.0053 18.5093ZM56.8949 34.8208C57.3162 32.8624 57.4216 30.9298 57.2109 29.0229C57.0529 27.3737 56.5526 25.673 55.7098 23.9207C54.9198 22.1684 53.4977 20.6738 51.4436 19.4369C50.9168 19.1277 50.4955 18.9988 50.1795 19.0504C49.8635 19.0504 49.6265 18.9731 49.4685 18.8185C49.4685 18.9731 49.4422 19.1534 49.3895 19.3596C49.3367 19.5142 49.2842 19.6946 49.2314 19.9008C49.1787 20.0554 49.1261 20.1843 49.0734 20.2873C49.0734 20.4419 49.0207 20.7511 48.9154 21.215C48.8627 21.6272 48.7574 22.0911 48.5994 22.6065C48.4414 23.1219 48.2834 23.6114 48.1254 24.0753L47.7304 25.2349C47.6776 25.5441 47.5723 25.9822 47.4143 26.5491C47.309 27.1159 47.1773 27.7344 47.0193 28.4044C46.8613 29.0229 46.7033 29.6156 46.5453 30.1824C46.44 30.7493 46.3873 31.1874 46.3873 31.4966C46.44 31.8059 46.4136 32.2181 46.3083 32.7335C46.2556 33.1974 46.1503 33.6869 45.9922 34.2023C45.8869 34.7178 45.7552 35.2073 45.5972 35.6712C45.4392 36.135 45.3075 36.4699 45.2022 36.6761C45.0969 36.8307 44.9125 37.3203 44.6492 38.1449C44.4384 38.9696 44.1751 39.9487 43.8591 41.0826C43.5958 42.2164 43.3061 43.4275 42.9901 44.7159C42.674 46.0044 42.3843 47.2155 42.121 48.3493C41.9103 49.4832 41.7523 50.4366 41.647 51.2096C41.5417 51.9827 41.5153 52.4208 41.568 52.5238C41.7787 52.5238 42.516 52.2662 43.7801 51.7508C45.0969 51.2354 46.5716 50.3335 48.2044 49.0451C49.8372 47.7051 51.4699 45.9013 53.1027 43.6337C54.7355 41.3145 55.9996 38.3769 56.8949 34.8208ZM33.3515 73.308C33.3515 74.9549 31.9872 76.2898 30.3041 76.2898C28.6211 76.2898 27.2568 74.9549 27.2568 73.308C27.2568 71.6612 28.6211 70.3262 30.3041 70.3262C31.9872 70.3262 33.3515 71.6612 33.3515 73.308ZM53.667 76.2898C55.35 76.2898 56.7143 74.9549 56.7143 73.308C56.7143 71.6612 55.35 70.3262 53.667 70.3262C51.984 70.3262 50.6197 71.6612 50.6197 73.308C50.6197 74.9549 51.984 76.2898 53.667 76.2898Z" fill="#00749C"/>
<mask id="mask0_501_81" style="mask-type:luminance" maskUnits="userSpaceOnUse" x="22" y="13" width="49" height="65">
<path d="M70.8784 13.142H22.1211V77.9684H70.8784V13.142Z" fill="white"/>
<path fill-rule="evenodd" clip-rule="evenodd" d="M64.0044 18.5093C65.9532 20.3646 67.3489 22.658 68.1916 25.3895C69.0344 28.0695 69.324 30.8782 69.0607 33.8158C68.85 36.7019 68.0863 39.5622 66.7695 42.3968C65.4528 45.1798 63.6093 47.6278 61.2392 49.7408C59.4484 51.2354 57.3417 52.5496 54.9188 53.6834C52.5487 54.7657 49.7835 55.4099 46.6233 55.6161C45.728 55.6161 45.0432 55.5645 44.5692 55.4614C44.1479 55.3068 43.8581 55.2295 43.7001 55.2295C43.5421 55.2295 43.1998 55.3068 42.6731 55.4614C42.199 55.5645 41.7513 55.6161 41.33 55.6161C41.014 55.6161 40.7507 55.6676 40.5399 55.7707C40.4346 55.8222 40.3556 55.848 40.3029 55.848C39.9342 58.0125 39.5919 59.9452 39.2759 61.6459C39.0125 63.1405 38.7228 64.5578 38.4068 65.8977C38.3108 66.3864 38.2252 66.8135 38.1501 67.1788H55.8669C56.6461 67.1788 57.2777 67.7968 57.2777 68.5593C57.2777 69.3217 56.6461 69.9397 55.8669 69.9397H28.1587C27.3795 69.9397 26.7479 69.3217 26.7479 68.5593C26.7479 68.4189 26.7694 68.2833 26.8092 68.1556C26.6853 67.9139 26.5482 67.6251 26.3981 67.2892C26.2928 67.083 26.3191 66.0523 26.4771 64.197C26.6351 62.2901 26.9511 59.9452 27.4251 57.1622C27.8992 54.3792 28.5049 51.3385 29.2422 48.0401C30.0323 44.6902 30.9803 41.4175 32.0864 38.2222C32.8238 36.3669 33.3768 34.6662 33.7455 33.1201C33.8208 32.7941 33.896 32.4561 33.9712 32.1065V19.3596H25.2243C24.4451 19.3596 23.8135 18.7416 23.8135 17.9792C23.8135 17.2167 24.4451 16.5987 25.2243 16.5987H35.382C36.1613 16.5987 36.7928 17.2167 36.7928 17.9792V18.9494C36.8904 18.4463 36.9807 17.9646 37.0637 17.5043C37.169 17.3497 37.2217 17.1178 37.2217 16.8085C37.2744 16.4993 37.4587 16.3447 37.7748 16.3447C38.0381 16.0871 38.3015 15.9324 38.5648 15.8809C38.8808 15.7778 39.1706 15.6747 39.4339 15.5716C39.6972 15.5201 39.9342 15.4686 40.1449 15.417C40.8297 15.5201 41.3563 15.5459 41.725 15.4943C42.1463 15.3913 42.5414 15.2882 42.9101 15.1851C43.3314 15.0821 43.7791 15.0048 44.2532 14.9532C44.7272 14.9016 45.3592 14.9532 46.1493 15.1078C46.3073 14.9532 46.6496 14.9532 47.1763 15.1078C47.7031 15.2108 48.7564 15.1078 50.3365 14.7986H54.3658C56.4726 15.1078 58.2897 15.5459 59.8171 16.1128C61.3445 16.6282 62.7403 17.427 64.0044 18.5093ZM56.8939 34.8208C57.3153 32.8624 57.4207 30.9298 57.21 29.0229C57.0519 27.3737 56.5516 25.673 55.7089 23.9207C54.9188 22.1684 53.4967 20.6738 51.4426 19.4369C50.9159 19.1277 50.4945 18.9988 50.1785 19.0504C49.8625 19.0504 49.6255 18.9731 49.4675 18.8185C49.4675 18.9731 49.4412 19.1534 49.3885 19.3596C49.3358 19.5142 49.2832 19.6946 49.2305 19.9008C49.1778 20.0554 49.1252 20.1843 49.0725 20.2873C49.0725 20.4419 49.0197 20.7511 48.9144 21.215C48.8617 21.6272 48.7564 22.0911 48.5984 22.6065C48.4404 23.1219 48.2824 23.6114 48.1244 24.0753L47.7294 25.2349C47.6767 25.5441 47.5714 25.9822 47.4134 26.5491C47.3081 27.1159 47.1763 27.7344 47.0183 28.4044C46.8603 29.0229 46.7023 29.6156 46.5443 30.1824C46.439 30.7493 46.3863 31.1874 46.3863 31.4966C46.439 31.8059 46.4126 32.2181 46.3073 32.7335C46.2546 33.1974 46.1493 33.6869 45.9913 34.2023C45.886 34.7178 45.7543 35.2073 45.5962 35.6712C45.4382 36.135 45.3065 36.4699 45.2012 36.6761C45.0959 36.8307 44.9115 37.3203 44.6482 38.1449C44.4375 38.9696 44.1742 39.9487 43.8581 41.0826C43.5948 42.2164 43.3051 43.4275 42.9891 44.7159C42.6731 46.0044 42.3833 47.2155 42.12 48.3493C41.9093 49.4832 41.7513 50.4366 41.646 51.2096C41.5407 51.9827 41.5143 52.4208 41.567 52.5238C41.7777 52.5238 42.5151 52.2662 43.7791 51.7508C45.0959 51.2354 46.5706 50.3335 48.2034 49.0451C49.8362 47.7051 51.4689 45.9013 53.1017 43.6337C54.7345 41.3145 55.9986 38.3769 56.8939 34.8208ZM33.3505 73.308C33.3505 74.9549 31.9862 76.2898 30.3032 76.2898C28.6201 76.2898 27.2558 74.9549 27.2558 73.308C27.2558 71.6612 28.6201 70.3262 30.3032 70.3262C31.9862 70.3262 33.3505 71.6612 33.3505 73.308ZM53.666 76.2898C55.3491 76.2898 56.7134 74.9549 56.7134 73.308C56.7134 71.6612 55.3491 70.3262 53.666 70.3262C51.983 70.3262 50.6187 71.6612 50.6187 73.308C50.6187 74.9549 51.983 76.2898 53.666 76.2898Z" fill="black"/>
</mask>
<g mask="url(#mask0_501_81)">
<path d="M68.1922 25.3894L66.5715 25.8682L66.5728 25.8724L66.5741 25.8766L68.1922 25.3894ZM64.005 18.5092L65.1855 17.3219L65.1535 17.2914L65.1198 17.2625L64.005 18.5092ZM69.0613 33.8158L67.3747 33.671L67.3736 33.6843L67.3726 33.6977L69.0613 33.8158ZM66.7701 42.3967L68.3064 43.0927L68.3089 43.0875L68.3113 43.0822L66.7701 42.3967ZM61.2398 49.7408L62.3384 51.0012L62.3595 50.9835L62.3799 50.9653L61.2398 49.7408ZM54.9194 53.6834L55.6353 55.1845L55.6426 55.1812L55.6498 55.1778L54.9194 53.6834ZM46.6239 55.616V57.2725H46.6802L46.7365 57.2689L46.6239 55.616ZM44.5698 55.4614L43.9753 57.0125L44.0866 57.0533L44.2025 57.0785L44.5698 55.4614ZM42.6736 55.4614L43.0409 57.0785L43.1011 57.0654L43.1601 57.048L42.6736 55.4614ZM40.3035 55.8479V54.1914H38.8693L38.6336 55.5756L40.3035 55.8479ZM39.2764 61.6459L37.6108 61.3496L37.6094 61.3569L37.6081 61.3643L39.2764 61.6459ZM38.4074 65.8977L36.7578 65.5252L36.7508 65.5549L36.7449 65.5848L38.4074 65.8977ZM38.1507 67.1787L36.4909 66.8524L36.0837 68.8353H38.1507V67.1787ZM26.8098 68.1556L28.429 68.6393L28.6267 68.0054L28.3231 67.4129L26.8098 68.1556ZM26.3986 67.2892L27.9496 66.6252L27.9322 66.5864L27.9128 66.5484L26.3986 67.2892ZM26.4776 64.1969L28.1647 64.3345L28.165 64.3327L28.1651 64.3308L26.4776 64.1969ZM29.2428 48.04L27.5932 47.6675L27.5911 47.6768L27.589 47.6861L29.2428 48.04ZM32.087 38.2222L30.5092 37.6217L30.4955 37.656L30.4835 37.6908L32.087 38.2222ZM33.7461 33.12L35.3948 33.4964L35.3962 33.4906L35.3975 33.4849L33.7461 33.12ZM33.9718 32.1064L35.6284 32.4478L35.6648 32.2789V32.1064H33.9718ZM33.9718 19.3596H35.6648V17.703H33.9718V19.3596ZM36.7934 18.9493H35.1005L38.4567 19.2582L36.7934 18.9493ZM37.0643 17.5042L35.6556 16.5854L35.4588 16.8743L35.3971 17.2163L37.0643 17.5042ZM37.2223 16.8085L35.5524 16.5361L35.5293 16.6714V16.8085H37.2223ZM37.7753 16.3446V18.0012H38.4766L38.9725 17.516L37.7753 16.3446ZM38.5654 15.8808L38.8974 17.5052L39.0008 17.485L39.1007 17.4523L38.5654 15.8808ZM39.4344 15.5716L39.1024 13.9472L38.95 13.977L38.8057 14.0335L39.4344 15.5716ZM40.1455 15.417L40.4029 13.7796L40.0658 13.7289L39.7349 13.8099L40.1455 15.417ZM41.7256 15.4943L41.965 17.1342L42.0514 17.1221L42.1362 17.1014L41.7256 15.4943ZM42.9107 15.1851L42.5001 13.578L42.4727 13.5846L42.4455 13.5922L42.9107 15.1851ZM46.1499 15.1077L45.8178 16.7322L46.7063 16.906L47.347 16.2791L46.1499 15.1077ZM47.1769 15.1077L46.6905 16.6944L46.7668 16.7168L46.8449 16.7322L47.1769 15.1077ZM50.3371 14.7985V13.142H50.1695L50.0051 13.1741L50.3371 14.7985ZM54.3664 14.7985L54.6175 13.1603L54.4927 13.142H54.3664V14.7985ZM59.8177 16.1127L59.2173 17.6616L59.2414 17.6705L59.2658 17.6788L59.8177 16.1127ZM57.2105 29.0228L55.525 29.1774L55.526 29.1891L55.5274 29.2008L57.2105 29.0228ZM56.8945 34.8207L58.5383 35.217L58.5453 35.1896L58.5511 35.162L56.8945 34.8207ZM55.7094 23.9206L54.1605 24.5893L54.1688 24.6077L54.1777 24.626L55.7094 23.9206ZM51.4432 19.4369L52.3304 18.026L52.3224 18.0212L52.3142 18.0164L51.4432 19.4369ZM50.1791 19.0503V20.7069H50.3192L50.4574 20.6844L50.1791 19.0503ZM49.4681 18.8184L50.6651 17.647L47.7751 14.8192V18.8184H49.4681ZM49.3891 19.3596L50.9951 19.8834L51.0157 19.8231L51.0315 19.7613L49.3891 19.3596ZM49.231 19.9007L50.8371 20.4245L50.8576 20.3642L50.8734 20.3025L49.231 19.9007ZM49.073 20.2872L47.5589 19.5464L47.3801 19.8962V20.2872H49.073ZM48.915 21.2149L47.2624 20.8555L47.2451 20.9319L47.2352 21.0095L48.915 21.2149ZM47.73 25.2348L46.1239 24.711L46.0819 24.8343L46.06 24.9625L47.73 25.2348ZM47.4139 26.549L45.7807 26.1131L45.7614 26.1822L45.7483 26.2527L47.4139 26.549ZM47.0189 28.4043L48.6613 28.8061L48.665 28.7915L48.6685 28.7768L47.0189 28.4043ZM46.5449 30.1824L44.9116 29.7465L44.8923 29.8156L44.8792 29.8861L46.5449 30.1824ZM46.3869 31.4966H44.6939V31.6336L44.7169 31.7689L46.3869 31.4966ZM46.3079 32.7335L44.6477 32.4086L44.6334 32.4791L44.6253 32.5506L46.3079 32.7335ZM45.9918 34.2023L44.3703 33.7263L44.3474 33.801L44.3317 33.8774L45.9918 34.2023ZM45.2018 36.6761L46.6105 37.5949L46.6689 37.5092L46.716 37.4169L45.2018 36.6761ZM44.6488 38.1449L43.0329 37.6508L43.0182 37.6966L43.0064 37.7431L44.6488 38.1449ZM43.8587 41.0825L42.2255 40.6466L42.2159 40.6808L42.2079 40.7154L43.8587 41.0825ZM42.1206 48.3492L40.4697 47.9822L40.4615 48.0174L40.455 48.0529L42.1206 48.3492ZM41.5676 52.5238L40.0534 53.2646L40.5212 54.1803H41.5676V52.5238ZM43.7797 51.7507L43.1509 50.2127L43.1398 50.2171L43.1286 50.2216L43.7797 51.7507ZM48.204 49.045L49.2667 50.3345L49.2795 50.3245L49.2919 50.3143L48.204 49.045ZM53.1023 43.6336L54.4862 44.5877L54.4914 44.5806L54.4965 44.5734L53.1023 43.6336ZM69.8129 24.9107C68.8934 21.9304 67.3549 19.3872 65.1855 17.3219L62.8244 19.6965C64.5526 21.3419 65.8056 23.3855 66.5715 25.8682L69.8129 24.9107ZM70.7478 33.9605C71.0292 30.821 70.7206 27.7969 69.8103 24.9023L66.5741 25.8766C67.3493 28.3417 67.62 30.9352 67.3747 33.671L70.7478 33.9605ZM68.3113 43.0822C69.7049 40.0823 70.5239 37.0306 70.7499 33.9338L67.3726 33.6977C67.1773 36.3731 66.4688 39.0421 65.229 41.7112L68.3113 43.0822ZM62.3799 50.9653C64.9128 48.7072 66.8927 46.0805 68.3064 43.0927L65.2338 41.7007C64.014 44.2789 62.307 46.5484 60.0996 48.5162L62.3799 50.9653ZM55.6498 55.1778C58.1869 53.9905 60.4214 52.6011 62.3384 51.0012L60.1412 48.4804C58.4766 49.8696 56.4975 51.1086 54.1889 52.1889L55.6498 55.1778ZM46.7365 57.2689C50.0629 57.0519 53.04 56.3696 55.6353 55.1845L54.2035 52.1822C52.0585 53.1616 49.5054 53.7678 46.5112 53.9631L46.7365 57.2689ZM44.2025 57.0785C44.8586 57.2212 45.6898 57.2725 46.6239 57.2725V53.9594C45.7671 53.9594 45.229 53.9078 44.937 53.8443L44.2025 57.0785ZM43.7007 56.886C43.6091 56.886 43.5525 56.8759 43.5497 56.8753C43.5416 56.8739 43.5538 56.8756 43.591 56.8856C43.6674 56.906 43.792 56.9452 43.9753 57.0125L45.1642 53.9103C44.9261 53.8229 44.6953 53.7462 44.482 53.6893C44.2973 53.6401 44.0101 53.5729 43.7007 53.5729V56.886ZM43.1601 57.048C43.4056 56.976 43.5845 56.9291 43.7061 56.9016C43.7666 56.8879 43.7999 56.882 43.8117 56.8803C43.8322 56.8771 43.786 56.886 43.7007 56.886V53.5729C43.414 53.5729 43.127 53.6321 42.9447 53.6733C42.7241 53.7231 42.4683 53.7921 42.1872 53.8747L43.1601 57.048ZM41.3306 57.2725C41.8925 57.2725 42.4642 57.2039 43.0409 57.0785L42.3064 53.8443C41.9351 53.925 41.6114 53.9594 41.3306 53.9594V57.2725ZM41.2976 57.2522C41.2511 57.2751 41.2237 57.2798 41.2281 57.2791C41.2333 57.2781 41.2651 57.2725 41.3306 57.2725V53.9594C40.8373 53.9594 40.2954 54.0385 39.7834 54.289L41.2976 57.2522ZM40.3035 57.5045C40.7876 57.5045 41.179 57.3103 41.2976 57.2522L39.7834 54.289C39.7756 54.2927 39.8064 54.2767 39.8669 54.2571C39.8987 54.2467 39.9496 54.2317 40.0159 54.2188C40.0806 54.2061 40.1797 54.1914 40.3035 54.1914V57.5045ZM40.9421 61.9422C41.2599 60.2317 41.6037 58.2908 41.9734 56.1203L38.6336 55.5756C38.2658 57.7342 37.925 59.6585 37.6108 61.3496L40.9421 61.9422ZM40.057 66.2702C40.3808 64.8971 40.6766 63.4494 40.9448 61.9274L37.6081 61.3643C37.3496 62.8315 37.066 64.2183 36.7578 65.5252L40.057 66.2702ZM39.8105 67.5051C39.8867 67.1341 39.9733 66.7023 40.0699 66.2105L36.7449 65.5848C36.6494 66.0704 36.5649 66.4927 36.4909 66.8524L39.8105 67.5051ZM55.8675 65.5222H38.1507V68.8353H55.8675V65.5222ZM58.9712 68.5592C58.9712 66.8819 57.5816 65.5222 55.8675 65.5222V68.8353C55.7116 68.8353 55.5853 68.7117 55.5853 68.5592H58.9712ZM55.8675 71.5962C57.5816 71.5962 58.9712 70.2365 58.9712 68.5592H55.5853C55.5853 68.4067 55.7116 68.2831 55.8675 68.2831V71.5962ZM28.1593 71.5962H55.8675V68.2831H28.1593V71.5962ZM25.0556 68.5592C25.0556 70.2365 26.4451 71.5962 28.1593 71.5962V68.2831C28.3152 68.2831 28.4415 68.4067 28.4415 68.5592H25.0556ZM25.1905 67.672C25.1024 67.9547 25.0556 68.2531 25.0556 68.5592H28.4415C28.4415 68.5845 28.4375 68.6119 28.429 68.6393L25.1905 67.672ZM24.8477 67.9531C25.0058 68.307 25.1556 68.6234 25.2965 68.8982L28.3231 67.4129C28.2161 67.2043 28.0918 66.9431 27.9496 66.6252L24.8477 67.9531ZM24.7906 64.0593C24.7106 64.9981 24.6613 65.7569 24.647 66.3201C24.6399 66.5989 24.6403 66.8595 24.6547 67.0833C24.6618 67.1946 24.6739 67.323 24.6968 67.4538C24.715 67.5577 24.7597 67.786 24.8845 68.03L27.9128 66.5484C28.0112 66.7407 28.0337 66.8918 28.0338 66.8926C28.0387 66.9203 28.0368 66.9199 28.034 66.8766C28.0285 66.7912 28.0258 66.6395 28.0318 66.4029C28.0437 65.9354 28.0866 65.2512 28.1647 64.3345L24.7906 64.0593ZM25.7558 56.8898C25.2772 59.6994 24.9534 62.0937 24.7902 64.0631L28.1651 64.3308C28.3179 62.4864 28.6261 60.1908 29.0956 57.4344L25.7558 56.8898ZM27.589 47.6861C26.8467 51.0065 26.2352 54.0747 25.7558 56.8898L29.0956 57.4344C29.5643 54.6835 30.1642 51.6704 30.8967 48.394L27.589 47.6861ZM30.4835 37.6908C29.3591 40.9393 28.3957 44.265 27.5932 47.6675L30.8924 48.4125C31.6701 45.1153 32.6028 41.8958 33.6905 38.7536L30.4835 37.6908ZM32.0974 32.7436C31.7508 34.1972 31.2245 35.822 30.5092 37.6217L33.6648 38.8226C34.4243 36.9117 35.0041 35.135 35.3948 33.4964L32.0974 32.7436ZM32.3152 31.7652C32.2415 32.1074 32.168 32.4374 32.0947 32.7551L35.3975 33.4849C35.4746 33.1505 35.5517 32.8047 35.6284 32.4478L32.3152 31.7652ZM32.2789 19.3596V32.1064H35.6648V19.3596H32.2789ZM25.2249 21.0161H33.9718V17.703H25.2249V21.0161ZM22.1211 17.9791C22.1211 19.6564 23.5107 21.0161 25.2249 21.0161V17.703C25.3807 17.703 25.507 17.8266 25.507 17.9791H22.1211ZM25.2249 14.9421C23.5107 14.9421 22.1211 16.3018 22.1211 17.9791H25.507C25.507 18.1316 25.3807 18.2552 25.2249 18.2552V14.9421ZM35.3826 14.9421H25.2249V18.2552H35.3826V14.9421ZM38.4864 17.9791C38.4864 16.3018 37.0968 14.9421 35.3826 14.9421V18.2552C35.2268 18.2552 35.1005 18.1316 35.1005 17.9791H38.4864ZM38.4864 18.9493V17.9791H35.1005V18.9493H38.4864ZM35.3971 17.2163C35.3155 17.6691 35.2265 18.1438 35.1301 18.6404L38.4567 19.2582C38.5555 18.7487 38.6471 18.2601 38.7315 17.7921L35.3971 17.2163ZM35.5293 16.8085C35.5293 16.8763 35.523 16.8861 35.5301 16.855C35.5371 16.8244 35.5651 16.7182 35.6556 16.5854L38.473 18.4231C38.8499 17.8699 38.9153 17.2494 38.9153 16.8085H35.5293ZM37.7753 14.6881C37.3373 14.6881 36.78 14.7989 36.2983 15.2028C35.8195 15.6044 35.6229 16.1219 35.5524 16.5361L38.8922 17.0808C38.8743 17.1858 38.7962 17.4714 38.5018 17.7184C38.2045 17.9677 37.8973 18.0012 37.7753 18.0012V14.6881ZM38.2333 14.2564C37.5381 14.3924 36.9896 14.7708 36.5782 15.1732L38.9725 17.516C39.0262 17.4634 39.0504 17.4507 39.0413 17.4559C39.0302 17.4625 38.9812 17.4888 38.8974 17.5052L38.2333 14.2564ZM38.8057 14.0335C38.5779 14.1226 38.3198 14.2148 38.0301 14.3093L39.1007 17.4523C39.443 17.3408 39.7643 17.2266 40.0632 17.1096L38.8057 14.0335ZM39.7349 13.8099C39.5554 13.8537 39.3453 13.8997 39.1024 13.9472L39.7665 17.196C40.0502 17.1404 40.3141 17.0832 40.5561 17.024L39.7349 13.8099ZM41.4862 13.8544C41.3679 13.871 41.0387 13.8754 40.4029 13.7796L39.888 17.0543C40.6218 17.1647 41.3459 17.2207 41.965 17.1342L41.4862 13.8544ZM42.4455 13.5922C42.0971 13.6896 41.7204 13.788 41.315 13.8872L42.1362 17.1014C42.5734 16.9944 42.9868 16.8866 43.3758 16.7779L42.4455 13.5922ZM44.0668 13.3067C43.5246 13.3657 43.0017 13.4553 42.5001 13.578L43.3213 16.7921C43.6623 16.7087 44.0348 16.6437 44.4406 16.5995L44.0668 13.3067ZM46.4819 13.4833C45.6215 13.315 44.7927 13.2278 44.0668 13.3067L44.4406 16.5995C44.6629 16.5755 45.0981 16.5912 45.8178 16.7322L46.4819 13.4833ZM47.6634 13.5211C47.3254 13.4218 46.9299 13.3352 46.5251 13.3352C46.139 13.3352 45.4834 13.4172 44.9528 13.9363L47.347 16.2791C46.9743 16.6437 46.5689 16.6483 46.5251 16.6483C46.4627 16.6483 46.5017 16.6391 46.6905 16.6944L47.6634 13.5211ZM50.0051 13.1741C49.2444 13.323 48.6449 13.4153 48.1935 13.4594C47.9687 13.4815 47.7968 13.4898 47.6707 13.4898C47.5379 13.4898 47.4933 13.4803 47.509 13.4833L46.8449 16.7322C47.3644 16.8338 47.9657 16.8113 48.5305 16.7561C49.1324 16.6972 49.8498 16.5833 50.6692 16.4229L50.0051 13.1741ZM54.3664 13.142H50.3371V16.4551H54.3664V13.142ZM60.4181 14.5638C58.7498 13.9446 56.8098 13.4821 54.6175 13.1603L54.1152 16.4367C56.1365 16.7334 57.8307 17.147 59.2173 17.6616L60.4181 14.5638ZM65.1198 17.2625C63.6976 16.0448 62.1122 15.1346 60.3696 14.5466L59.2658 17.6788C60.5781 18.1216 61.7841 18.809 62.8901 19.7559L65.1198 17.2625ZM55.5274 29.2008C55.7181 30.9269 55.6241 32.6842 55.2379 34.4795L58.5511 35.162C59.0077 33.0404 59.1244 30.9325 58.8937 28.8448L55.5274 29.2008ZM54.1777 24.626C54.9508 26.2335 55.388 27.7484 55.525 29.1774L58.8962 28.8682C58.717 26.9988 58.1536 25.1122 57.2412 23.2152L54.1777 24.626ZM50.556 20.8477C52.3863 21.9499 53.5383 23.2093 54.1605 24.5893L57.2584 23.2519C56.3005 21.1274 54.6083 19.3977 52.3304 18.026L50.556 20.8477ZM50.4574 20.6844C50.3633 20.6997 50.2928 20.6965 50.2555 20.6926C50.2191 20.6888 50.2082 20.6837 50.2272 20.6894C50.2457 20.6952 50.2844 20.7088 50.345 20.7367C50.4052 20.7645 50.4806 20.8036 50.5722 20.8573L52.3142 18.0164C51.7169 17.6657 50.8438 17.2626 49.9008 17.4163L50.4574 20.6844ZM48.271 19.9898C48.8585 20.5647 49.6021 20.7069 50.1791 20.7069V17.3938C50.124 17.3938 50.3937 17.3814 50.6651 17.647L48.271 19.9898ZM51.0315 19.7613C51.1062 19.469 51.161 19.1483 51.161 18.8184H47.7751C47.7751 18.805 47.7761 18.8095 47.7724 18.8354C47.7687 18.8609 47.7611 18.9011 47.7467 18.9578L51.0315 19.7613ZM50.8734 20.3025C50.9186 20.1259 50.9596 19.9878 50.9951 19.8834L47.783 18.8358C47.7132 19.0405 47.6488 19.2633 47.5886 19.4989L50.8734 20.3025ZM50.5872 21.028C50.687 20.8328 50.7686 20.6257 50.8371 20.4245L47.625 19.3769C47.5882 19.4849 47.5644 19.5355 47.5589 19.5464L50.5872 21.028ZM50.5677 21.5743C50.6653 21.1442 50.766 20.6551 50.766 20.2872H47.3801C47.3801 20.2424 47.3833 20.2248 47.3805 20.2492C47.3783 20.2692 47.3733 20.3058 47.3636 20.3628C47.3441 20.4775 47.3115 20.6394 47.2624 20.8555L50.5677 21.5743ZM50.2205 23.0824C50.3983 22.5029 50.5277 21.9464 50.5949 21.4204L47.2352 21.0095C47.197 21.308 47.1157 21.6792 46.9775 22.1304L50.2205 23.0824ZM49.731 24.599C49.895 24.1178 50.0581 23.6123 50.2205 23.0824L46.9775 22.1304C46.8239 22.6314 46.6709 23.1049 46.5189 23.5514L49.731 24.599ZM49.336 25.7586L49.731 24.599L46.5189 23.5514L46.1239 24.711L49.336 25.7586ZM49.0472 26.9849C49.2097 26.4019 49.333 25.9 49.3999 25.5071L46.06 24.9625C46.0216 25.1882 45.9342 25.5623 45.7807 26.1131L49.0472 26.9849ZM48.6685 28.7768C48.8314 28.0863 48.9688 27.4421 49.0796 26.8453L45.7483 26.2527C45.6485 26.7898 45.5224 27.3825 45.3693 28.0318L48.6685 28.7768ZM48.1781 30.6183C48.3396 30.0391 48.5006 29.4351 48.6613 28.8061L45.3765 28.0026C45.2212 28.6105 45.0661 29.1919 44.9116 29.7465L48.1781 30.6183ZM48.0798 31.4966C48.0798 31.3379 48.1106 31.0161 48.2105 30.4787L44.8792 29.8861C44.7684 30.4825 44.6939 31.0368 44.6939 31.4966H48.0798ZM47.968 33.0584C48.0901 32.4609 48.1585 31.821 48.0568 31.2242L44.7169 31.7689C44.7167 31.7675 44.7245 31.8166 44.7169 31.9344C44.7096 32.0493 44.6893 32.2054 44.6477 32.4086L47.968 33.0584ZM47.6134 34.6783C47.7964 34.0814 47.925 33.4933 47.9904 32.9164L44.6253 32.5506C44.5854 32.9014 44.5033 33.2924 44.3703 33.7263L47.6134 34.6783ZM47.2029 36.1949C47.3847 35.6613 47.5338 35.1049 47.652 34.5272L44.3317 33.8774C44.2392 34.3304 44.125 34.7533 43.9908 35.1473L47.2029 36.1949ZM46.716 37.4169C46.8784 37.0992 47.0411 36.6699 47.2029 36.1949L43.9908 35.1473C43.8365 35.6 43.7359 35.8407 43.6876 35.9353L46.716 37.4169ZM46.2646 38.639C46.3926 38.2384 46.495 37.9395 46.5731 37.732C46.6124 37.6278 46.6403 37.5606 46.6575 37.522C46.6826 37.4664 46.667 37.512 46.6105 37.5949L43.7931 35.7572C43.613 36.0216 43.4796 36.3643 43.396 36.5865C43.2898 36.8686 43.1683 37.2267 43.0329 37.6508L46.2646 38.639ZM45.492 41.5184C45.8101 40.3771 46.0767 39.386 46.2912 38.5466L43.0064 37.7431C42.7995 38.5529 42.5393 39.5203 42.2255 40.6466L45.492 41.5184ZM44.6359 45.1025C44.9533 43.8084 45.2446 42.5907 45.5096 41.4496L42.2079 40.7154C41.9462 41.8419 41.6581 43.0465 41.3434 44.3292L44.6359 45.1025ZM43.7715 48.7163C44.0331 47.5899 44.3212 46.3853 44.6359 45.1025L41.3434 44.3292C41.0261 45.6233 40.7348 46.841 40.4697 47.9822L43.7715 48.7163ZM43.3246 51.4285C43.4253 50.6904 43.5784 49.7646 43.7863 48.6456L40.455 48.0529C40.2415 49.2016 40.0786 50.1826 39.9685 50.9907L43.3246 51.4285ZM43.0818 51.783C43.1362 51.8893 43.1674 51.9809 43.185 52.0407C43.2034 52.1029 43.2139 52.154 43.2199 52.1879C43.2314 52.2533 43.2336 52.2969 43.2339 52.3049C43.2347 52.3204 43.2329 52.2971 43.2379 52.2152C43.2474 52.0564 43.274 51.8004 43.3246 51.4285L39.9685 50.9907C39.9138 51.3918 39.8746 51.7413 39.8578 52.0206C39.8496 52.1577 39.8445 52.3116 39.8518 52.4625C39.8552 52.5308 39.8649 52.8958 40.0534 53.2646L43.0818 51.783ZM43.1286 50.2216C42.5068 50.475 42.0374 50.6557 41.7092 50.7705C41.5436 50.8283 41.4347 50.8621 41.3712 50.8794C41.3397 50.8879 41.3354 50.888 41.3516 50.885C41.3554 50.8842 41.4399 50.8672 41.5676 50.8672V54.1803C41.8726 54.1803 42.1549 54.1049 42.2775 54.0715C42.451 54.0244 42.6449 53.9615 42.848 53.8905C43.2571 53.7475 43.7885 53.5417 44.4308 53.2798L43.1286 50.2216ZM47.1413 47.7555C45.5832 48.985 44.2557 49.7803 43.1509 50.2127L44.4085 53.2888C45.9372 52.6904 47.5593 51.6819 49.2667 50.3345L47.1413 47.7555ZM51.7183 42.6795C50.144 44.866 48.6067 46.5524 47.1161 47.7757L49.2919 50.3143C51.0668 48.8576 52.7951 46.9364 54.4862 44.5877L51.7183 42.6795ZM55.2508 34.4245C54.3903 37.8415 53.1957 40.5808 51.7081 42.6938L54.4965 44.5734C56.2743 42.048 57.6079 38.9121 58.5383 35.217L55.2508 34.4245ZM30.3037 77.9463C32.9217 77.9463 35.044 75.8697 35.044 73.308H31.6581C31.6581 74.0399 31.0517 74.6332 30.3037 74.6332V77.9463ZM25.5634 73.308C25.5634 75.8697 27.6857 77.9463 30.3037 77.9463V74.6332C29.5558 74.6332 28.9494 74.0399 28.9494 73.308H25.5634ZM30.3037 68.6696C27.6857 68.6696 25.5634 70.7463 25.5634 73.308H28.9494C28.9494 72.5761 29.5558 71.9827 30.3037 71.9827V68.6696ZM35.044 73.308C35.044 70.7463 32.9217 68.6696 30.3037 68.6696V71.9827C31.0517 71.9827 31.6581 72.5761 31.6581 73.308H35.044ZM55.021 73.308C55.021 74.0399 54.4146 74.6332 53.6666 74.6332V77.9463C56.2846 77.9463 58.4069 75.8697 58.4069 73.308H55.021ZM53.6666 71.9827C54.4146 71.9827 55.021 72.5761 55.021 73.308H58.4069C58.4069 70.7463 56.2846 68.6696 53.6666 68.6696V71.9827ZM52.3122 73.308C52.3122 72.5761 52.9187 71.9827 53.6666 71.9827V68.6696C51.0486 68.6696 48.9263 70.7463 48.9263 73.308H52.3122ZM53.6666 74.6332C52.9187 74.6332 52.3122 74.0399 52.3122 73.308H48.9263C48.9263 75.8697 51.0486 77.9463 53.6666 77.9463V74.6332Z" fill="#F4F4F4"/>
</g>
</g>
<defs>
<linearGradient id="paint0_linear_501_81" x1="76.409" y1="12.3689" x2="19.2348" y2="83.3848" gradientUnits="userSpaceOnUse">
<stop stop-color="#FA923C"/>
<stop offset="0.44243" stop-color="#F97304"/>
<stop offset="1" stop-color="#E3520C"/>
</linearGradient>
<clipPath id="clip0_501_81">
<rect width="93" height="91" fill="white"/>
</clipPath>
</defs>
</svg>
